<?xml version="1.0" encoding="utf-8"?>
<?xml-stylesheet type="text/xsl" href="rss1.xsl"?>
<rss version="2.0" xmlns:atom="http://www.w3.org/2005/Atom" xmlns:content="http://purl.org/rss/1.0/modules/content/" xmlns:dc="http://purl.org/dc/elements/1.1/" xmlns:media="http://search.yahoo.com/mrss/">
<channel>
 <title>Getty</title>
 <link>http://www.gettyimg.com/</link>
 <atom:link href="http://www.gettyimg.com/" rel="self" type="application/rss+xml" />

 
                <item>
                <title><![CDATA[【Singles (lossless)】ALAC - Geisha - Karena Kamu]]></title>
                <link><![CDATA[https://sharemania.us/threads/geisha-karena-kamu.238588/]]></link>
                <description><![CDATA[<article>
<blockquote class="messageText SelectQuoteContainer ugc baseHtml">
<img src="https://is1-ssl.mzstatic.com/image/thumb/Music126/v4/e0/ce/12/e0ce12c4-0f63-4641-89ba-45c885869570/dj.vtirlfzr.jpg/600x600bf-60.jpg" class="bbCodeImage LbImage" alt="[​IMG]" data-url="https://is1-ssl.mzstatic.com/image/thumb/Music126/v4/e0/ce/12/e0ce12c4-0f63-4641-89ba-45c885869570/dj.vtirlfzr.jpg/600x600bf-60.jpg" style=""><br>
<br>
<span style="font-size: 18px"><b>Artist: Geisha<br>
Album: Meraih Bintang [1 Track Only]</b><br>
Countries: Indonesia<br>
Format: Apple Lossless Audio Codec w/ Core Media Audio<br>
.m4a [ALAC, 24bit/44.1kHz, 2.1Mbps]</span><br>
<br>
<span style="color: #ff0000"><b>Tracklist:</b><br>
</span><br>
<i>11. Karena Kamu</i><br>
<br>
Link Download:<br>
<div class="bbCodeBlock bbCodeVfcHH HiddenContent">
<div class="attribution type">Hidden Content:</div>
<blockquote>You must reply before you can see the hidden data contained here.</blockquote>
</div>
<div class="bbCodeBlock bbCodeVfcHH HiddenContent">
<div class="attribution type">Hidden Content:</div>
<blockquote>You must reply before you can see the hidden data contained here.</blockquote>
</div>
<div class="messageTextEndMarker">&nbsp;</div>
</blockquote>
</article>]]></description>
                <author><![CDATA[andammm777]]></author>
                </item>

                
                <item>
                <title><![CDATA[【MASTER &amp; MASTER RIP】MASTER - Taylor Swift - Mean [ALAC-HEVC-1080P-MASTERRIP]]]></title>
                <link><![CDATA[https://sharemania.us/threads/taylor-swift-mean-alac-hevc-1080p-masterrip.238586/]]></link>
                <description><![CDATA[<article>
<blockquote class="messageText SelectQuoteContainer ugc baseHtml">
IVTCed from the 1080i master here: <a href="https://sharemania.us/threads/taylor-swift-x5-prores-videos-1-promo-audio.238477" class="internalLink">https://sharemania.us/threads/taylor-swift-x5-prores-videos-1-promo-audio.238477</a><br>
<img src="https://img2.imgtp.com/2024/02/26/1ky5MU4q.jpg" class="bbCodeImage LbImage" alt="[​IMG]" data-url="https://img2.imgtp.com/2024/02/26/1ky5MU4q.jpg" style=""><br>
<div class="bbCodeBlock bbCodeVfcHH HiddenContent">
<div class="attribution type">Hidden Content:</div>
<blockquote>You must reply before you can see the hidden data contained here.</blockquote>
</div>
<div class="ToggleTriggerAnchor bbCodeSpoilerContainer">
<button type="button" class="button bbCodeSpoilerButton ToggleTrigger Tooltip JsOnly" data-target="> .SpoilerTarget"><span>Spoiler: <span class="SpoilerTitle">Mediainfo</span></span></button>
<div class="SpoilerTarget bbCodeSpoilerText">General<br>
Format : MPEG-4<br>
Format profile : Base Media<br>
Codec ID : iso4 (iso4/iso6)<br>
File size : 1.53 GiB<br>
Duration : 4 min 2 s<br>
Overall bit rate mode : Variable<br>
Overall bit rate : 54.1 Mb/s<br>
Encoded date : UTC 2024-02-25 18:06:57<br>
Tagged date : UTC 2024-02-25 18:06:57<br>
Writing application : GPAC-2.3-DEV-rev317-gde9dbefc6-ab-suite<br>
<br>
Video<br>
ID : 1<br>
Format : HEVC<br>
Format/Info : High Efficiency Video Coding<br>
Format profile : Format Range@L4@Main<br>
Codec ID : hvc1<br>
Codec ID/Info : High Efficiency Video Coding<br>
Duration : 4 min 2 s<br>
Bit rate : 51.7 Mb/s<br>
Maximum bit rate : 73.4 Mb/s<br>
Width : 1 920 pixels<br>
Height : 1 080 pixels<br>
Display aspect ratio : 16:9<br>
Frame rate mode : Constant<br>
Frame rate : 23.976 (23976/1000) FPS<br>
Color space : YUV<br>
Chroma subsampling : 4:2:2<br>
Bit depth : 10 bits<br>
Bits/(Pixel*Frame) : 1.040<br>
Stream size : 1.46 GiB (96%)<br>
Encoded date : UTC 2024-02-25 18:06:57<br>
Tagged date : UTC 2024-02-25 18:06:59<br>
mdhd_Duration : 242409<br>
Codec configuration box : hvcC<br>
<br>
Audio<br>
ID : 2<br>
Format : ALAC<br>
Codec ID : alac<br>
Codec ID/Info : Apple Lossless Audio Codec<br>
Duration : 4 min 2 s<br>
Bit rate mode : Variable<br>
Bit rate : 2 421 kb/s<br>
Maximum bit rate : 2 708 kb/s<br>
Channel(s) : 2 channels<br>
Sampling rate : 48.0 kHz<br>
Bit depth : 32 bits<br>
Stream size : 69.9 MiB (4%)<br>
Default : Yes<br>
Alternate group : 1<br>
Tagged date : UTC 2024-02-25 18:06:59</div>
</div>
<div class="messageTextEndMarker">&nbsp;</div>
</blockquote>
</article>]]></description>
                <author><![CDATA[WDRB_GSZMZ]]></author>
                </item>

                
                <item>
                <title><![CDATA[【Singles (lossless)】FLAC - Take That - I Found Heaven (1992) [Remixes] [16bit 44100kHz CD/Vinyl]]]></title>
                <link><![CDATA[https://sharemania.us/threads/take-that-i-found-heaven-1992-remixes-16bit-44100khz-cd-vinyl.238587/]]></link>
                <description><![CDATA[<article>
<blockquote class="messageText SelectQuoteContainer ugc baseHtml">
<img src="https://i.imgur.com/KrivNSb.jpg" class="bbCodeImage LbImage" alt="[​IMG]" data-url="https://i.imgur.com/KrivNSb.jpg" style=""> <br>
<br>
<b>01 I Found Heaven (Original 12" Mix)<br>
02 I Found Heaven (Classic 12" Mix)<br>
03 I Found Heaven (Mr. F's Garage Mix)</b><br>
<br>
Decode at <a href="https://www.base64decode.org/" target="_blank" class="externalLink" rel="nofollow">https://www.base64decode.org/</a><br>
<br>
<div class="bbCodeBlock bbCodeVfcHH HiddenContent">
<div class="attribution type">Hidden Content:</div>
<blockquote>You must reply before you can see the hidden data contained here.</blockquote>
</div>
<div class="messageTextEndMarker">&nbsp;</div>
</blockquote>
</article>]]></description>
                <author><![CDATA[KingOfHell1661]]></author>
                </item>

                </channel></rss>